HIERARCHY
ROOT Hips
{
	OFFSET 0.000000 0.000000 0.000000
	CHANNELS 6 Xposition Yposition Zposition Xrotation Yrotation Zrotation
	JOINT LeftUpLeg_virtual
	{
		OFFSET 0.000000 0.000000 0.000000
		CHANNELS 3 Xrotation Yrotation Zrotation
		JOINT LeftUpLeg
		{
			OFFSET 15.427100 -6.655098 0.678600
			CHANNELS 3 Xrotation Yrotation Zrotation
			JOINT LeftLeg
			{
				OFFSET 4.081073 -39.591068 13.024000
				CHANNELS 3 Xrotation Yrotation Zrotation
				JOINT LeftFoot
				{
					OFFSET -4.081074 -37.707932 -15.979700
					CHANNELS 3 Xrotation Yrotation Zrotation
					JOINT LeftToeBase
					{
						OFFSET 5.346399 -15.068900 20.645000
						CHANNELS 3 Xrotation Yrotation Zrotation
						JOINT LeftToe_End
						{
							OFFSET 2.754700 0.931300 11.300900
							CHANNELS 3 Xrotation Yrotation Zrotation
							End Site
							{
								OFFSET 0 0 0
							}
						}
					}
				}
			}
		}
	}
	JOINT RightUpLeg_virtual
	{
		OFFSET 0.000000 0.000000 0.000000
		CHANNELS 3 Xrotation Yrotation Zrotation
		JOINT RightUpLeg
		{
			OFFSET -15.569500 -6.655098 0.678600
			CHANNELS 3 Xrotation Yrotation Zrotation
			JOINT RightLeg
			{
				OFFSET -4.081825 -39.591045 13.023800
				CHANNELS 3 Xrotation Yrotation Zrotation
				JOINT RightFoot
				{
					OFFSET 4.081824 -37.707954 -15.979600
					CHANNELS 3 Xrotation Yrotation Zrotation
					JOINT RightToeBase
					{
						OFFSET -5.346400 -15.068900 20.645000
						CHANNELS 3 Xrotation Yrotation Zrotation
						JOINT RightToe_End
						{
							OFFSET -2.754700 0.931300 11.300900
							CHANNELS 3 Xrotation Yrotation Zrotation
							End Site
							{
								OFFSET 0 0 0
							}
						}
					}
				}
			}
		}
	}
	JOINT Spine_virtual
	{
		OFFSET 0.000000 0.000000 0.000000
		CHANNELS 3 Xrotation Yrotation Zrotation
		JOINT Spine
		{
			OFFSET -0.279200 12.230698 -2.892100
			CHANNELS 3 Xrotation Yrotation Zrotation
			JOINT Spine1
			{
				OFFSET -0.232667 10.192268 -1.242267
				CHANNELS 3 Xrotation Yrotation Zrotation
				JOINT Spine1_split
				{
					OFFSET -0.232667 10.192268 -1.242267
					CHANNELS 3 Xrotation Yrotation Zrotation
					JOINT Spine2
					{
						OFFSET -0.232667 10.192268 -1.242267
						CHANNELS 3 Xrotation Yrotation Zrotation
						JOINT Neck_virtual
						{
							OFFSET 0.000000 0.000000 0.000000
							CHANNELS 3 Xrotation Yrotation Zrotation
							JOINT Neck
							{
								OFFSET -0.418800 17.814194 8.416900
								CHANNELS 3 Xrotation Yrotation Zrotation
								JOINT Head
								{
									OFFSET 0.000000 7.031097 3.806800
									CHANNELS 3 Xrotation Yrotation Zrotation
									JOINT HeadTop_End
									{
										OFFSET 0.000000 24.646606 12.978600
										CHANNELS 3 Xrotation Yrotation Zrotation
										End Site
										{
											OFFSET 0 0 0
										}
									}
								}
							}
						}
						JOINT LeftShoulder_virtual
						{
							OFFSET 0.000000 0.000000 0.000000
							CHANNELS 3 Xrotation Yrotation Zrotation
							JOINT LeftShoulder
							{
								OFFSET 8.476499 7.247704 -3.868750
								CHANNELS 3 Xrotation Yrotation Zrotation
								JOINT LeftShoulder_split
								{
									OFFSET 8.476499 7.247704 -3.868750
									CHANNELS 3 Xrotation Yrotation Zrotation
									JOINT LeftArm
									{
										OFFSET 9.308998 -2.777710 0.208600
										CHANNELS 3 Xrotation Yrotation Zrotation
										JOINT LeftForeArm
										{
											OFFSET 29.972298 0.000000 0.000000
											CHANNELS 3 Xrotation Yrotation Zrotation
											JOINT LeftHand
											{
												OFFSET 26.026505 0.000000 0.000000
												CHANNELS 3 Xrotation Yrotation Zrotation
												End Site
												{
													OFFSET 0 0 0
												}
											}
										}
									}
								}
							}
						}
						JOINT RightShoulder_virtual
						{
							OFFSET 0.000000 0.000000 0.000000
							CHANNELS 3 Xrotation Yrotation Zrotation
							JOINT RightShoulder
							{
								OFFSET -7.570500 7.247704 -3.868750
								CHANNELS 3 Xrotation Yrotation Zrotation
								JOINT RightShoulder_split
								{
									OFFSET -7.570500 7.247704 -3.868750
									CHANNELS 3 Xrotation Yrotation Zrotation
									JOINT RightArm
									{
										OFFSET -9.308998 -2.777710 0.208500
										CHANNELS 3 Xrotation Yrotation Zrotation
										JOINT RightForeArm
										{
											OFFSET -29.972300 0.000000 0.000000
											CHANNELS 3 Xrotation Yrotation Zrotation
											JOINT RightHand
											{
												OFFSET -26.026505 0.000000 0.000000
												CHANNELS 3 Xrotation Yrotation Zrotation
												End Site
												{
													OFFSET 0 0 0
												}
											}
										}
									}
								}
							}
						}
					}
				}
			}
		}
	}
}
MOTION
Frames: 6
Frame Time: 0.03333333
-7.721852 83.368713 41.289959 0.000000 0.000000 0.000000 26.778257 7.122993 -18.186297 -75.526934 -7.597904 15.628446 26.844913 6.714073 -5.381602 25.513719 -4.541207 6.320635 -2.266614 -0.012896 -0.587420 0.000000 0.000000 0.000000 26.901989 9.752172 -19.482857 13.028281 -25.487320 -16.718167 60.918000 10.120699 3.868233 20.994682 -2.007286 14.163664 15.214480 0.455927 2.037153 0.000000 0.000000 0.000000 26.500509 8.158271 -19.967971 6.764558 13.126131 -9.480224 12.791346 11.233977 -6.954917 1.729674 0.509527 0.688007 0.000000 0.000000 0.000000 12.324279 10.827127 -7.484806 -10.599532 -6.987983 7.928181 -26.911592 -32.191686 18.873517 0.000000 0.000000 0.000000 11.603205 11.384561 -7.512704 -0.064809 6.137138 4.753164 -4.120231 -0.300773 -0.863980 32.658635 -41.576393 -12.733331 0.030936 -29.637933 -1.576466 0.000000 0.000000 0.000000 11.878892 10.912475 -7.934638 5.672844 13.979889 -5.437416 -2.254144 5.311612 -1.137462 -19.531952 56.105455 34.231921 -2.320165 39.880809 0.715914 0.000000 0.000000 0.000000 
-8.209234 82.992210 42.781166 0.000000 0.000000 0.000000 24.836641 7.713109 -17.311225 -75.547671 -7.471762 16.376690 31.092121 5.809159 -7.166108 22.641295 -4.761970 7.021052 -1.954059 0.036914 -0.626497 0.000000 0.000000 0.000000 24.814943 9.904702 -18.482441 8.592924 -25.102861 -15.855101 59.261494 9.905773 3.722600 20.024043 -2.286959 11.223485 14.898352 0.449129 2.220985 0.000000 0.000000 0.000000 24.472872 8.291618 -19.046741 6.629646 11.950026 -9.629844 13.195032 10.409387 -7.112515 1.376276 0.729409 0.659455 0.000000 0.000000 0.000000 12.588046 10.089483 -7.665643 -10.965441 -6.701272 7.493915 -27.133895 -32.180170 19.300006 0.000000 0.000000 0.000000 11.565242 10.684570 -7.638469 0.039249 5.492821 5.659427 -4.057745 -1.205908 -1.569734 30.865987 -43.978461 -5.272075 0.467987 -27.694375 -1.160505 0.000000 0.000000 0.000000 12.069069 10.214202 -7.988131 5.519954 13.533845 -4.609129 -1.742858 4.204186 -1.051818 -18.960371 52.446687 27.821813 -2.246415 38.265476 0.906513 0.000000 0.000000 0.000000 
-8.570577 82.962250 44.431110 0.000000 0.000000 0.000000 23.008869 8.080367 -16.476506 -74.966135 -6.785402 17.019317 34.616242 4.853266 -8.453958 19.746541 -4.997633 7.628367 -1.522603 0.153777 -0.741122 0.000000 0.000000 0.000000 22.766745 10.105523 -17.662634 4.350943 -24.927805 -15.081189 56.757755 9.671895 3.647993 19.139266 -2.174815 7.792256 14.072217 0.530801 2.695556 0.000000 0.000000 0.000000 22.391165 8.344784 -18.234153 6.557763 10.712931 -9.804614 13.583463 9.297306 -7.244741 1.243741 0.744630 0.601664 0.000000 0.000000 0.000000 12.895039 9.059209 -7.834452 -11.320605 -6.439455 7.071121 -26.820076 -31.834528 19.902362 0.000000 0.000000 0.000000 11.662845 9.659290 -7.745127 0.162088 4.763776 6.381819 -3.923606 -1.941696 -2.162196 27.458689 -47.137618 0.548419 0.862341 -24.982242 -0.598703 0.000000 0.000000 0.000000 12.421590 9.224808 -8.041013 5.558796 13.256730 -4.833013 -1.369539 3.069937 -1.173035 -18.584310 49.597289 22.533265 -2.201339 35.521970 1.093535 0.000000 0.000000 0.000000 
-8.766498 83.199905 46.195282 0.000000 0.000000 0.000000 21.230176 8.305415 -15.705468 -73.632486 -5.583219 17.619747 37.635876 3.908185 -9.115825 16.911458 -5.171476 8.015567 -1.663934 0.307341 -0.881002 0.000000 0.000000 0.000000 20.748207 10.312847 -17.011098 0.079959 -24.943381 -14.788136 53.716122 9.668352 3.397947 19.154994 -1.330983 5.206804 10.951729 0.568238 3.475643 0.000000 0.000000 0.000000 20.292822 8.385750 -17.513162 6.567087 9.203768 -10.043712 13.981868 7.810761 -7.283522 1.255348 0.796322 0.496096 0.000000 0.000000 0.000000 13.216726 7.629802 -7.883729 -11.578368 -6.142865 6.688596 -25.882276 -30.873200 20.728743 0.000000 0.000000 0.000000 11.936298 8.206500 -7.780573 0.276415 4.020876 6.848088 -3.851733 -2.234094 -2.452386 22.039036 -50.614922 4.101813 1.079563 -21.513672 -0.001539 0.000000 0.000000 0.000000 12.889351 7.825926 -8.007488 5.754662 13.033952 -6.157531 -1.087169 2.241216 -1.493600 -17.876997 47.497634 17.748831 -2.174702 32.896916 1.196686 0.000000 0.000000 0.000000 
-8.844028 83.603973 48.206528 0.000000 0.000000 0.000000 19.451581 8.273178 -15.016079 -71.665377 -3.940673 18.316703 40.498316 3.089047 -9.114865 13.972679 -5.145988 8.383478 -2.147725 0.435935 -1.052907 0.000000 0.000000 0.000000 18.788689 10.415012 -16.481868 -4.051596 -25.006542 -15.061458 49.859824 9.850732 2.897131 19.648636 0.215866 3.865759 6.351019 0.452637 4.534521 0.000000 0.000000 0.000000 18.165701 8.405040 -16.961339 6.646846 7.330394 -10.330155 14.378187 5.969975 -7.188096 1.403048 0.836958 0.240936 0.000000 0.000000 0.000000 13.488897 5.811624 -7.757507 -11.659997 -5.755595 6.325542 -24.461050 -29.194039 21.741476 0.000000 0.000000 0.000000 12.362002 6.326492 -7.681431 0.342168 3.360300 7.174504 -3.740577 -2.175008 -2.333123 14.563246 -53.740307 5.030976 1.033979 -17.800217 0.522348 0.000000 0.000000 0.000000 13.404886 6.018183 -7.863236 6.045618 12.653059 -8.401928 -0.784827 1.627350 -1.776531 -17.349973 45.996464 13.473003 -2.216455 31.458977 1.233082 0.000000 0.000000 0.000000 
-8.780259 84.069389 50.301048 0.000000 0.000000 0.000000 17.652757 8.012435 -14.511772 -69.170944 -2.017304 19.233610 43.094758 2.453221 -8.567379 10.722115 -4.926055 8.810681 -2.529724 0.524571 -1.202300 0.000000 0.000000 0.000000 16.930282 10.305398 -16.074019 -7.665131 -24.978222 -15.602450 44.882532 9.950500 2.123436 19.707488 1.930245 3.217412 2.247866 0.197577 5.695130 0.000000 0.000000 0.000000 16.100660 8.228033 -16.576953 6.755271 5.139548 -10.604211 14.745653 3.866856 -6.944057 1.564186 0.973949 0.027390 0.000000 0.000000 0.000000 13.717735 3.702973 -7.438364 -11.595387 -5.271225 5.967404 -22.810995 -26.831249 22.797266 0.000000 0.000000 0.000000 12.821506 4.143823 -7.412080 0.337659 2.923000 7.447099 -3.651667 -1.982373 -1.841617 5.343020 -56.156046 3.503398 0.741994 -14.751462 0.898417 0.000000 0.000000 0.000000 13.870173 3.893129 -7.570107 6.287295 12.052440 -11.195838 -0.574843 0.985001 -1.732765 -18.511220 45.031328 10.488840 -2.333633 31.433729 1.209258 0.000000 0.000000 0.000000 
